# xmcd CD database file
#
# Track frame offsets:
#	150
#	12524
#	27789
#	39970
#	50996
#	62766
#	79511
#	92569
#	107974
#	118029
#	168689
#
# Disc length: 2326 seconds
#
# Revision: 0
# Processed by: cddbd v1.4PL0 Copyright (c) Steve Scherf et al.
# Submitted via: CDex 1.50
#
DISCID=8d09140b
DTITLE=Varios Artists - BBC - All the Blues, All the time - Jam 3
DYEAR=1900
DGENRE=Blues
TTITLE0="Little" Johnny Taylor - Everybody knows about my good thing
TTITLE1="Little" Johnny Taylor - Encourage my baby
TTITLE2=Elmore James - Blues before sunrise
TTITLE3=Memphis Slim - Lonesome
TTITLE4=John Lee Hooker - Boogie chillun
TTITLE5=T-Bone Walker - No do right
TTITLE6=Sonny Terry and Brownie McGhee - Walk on
TTITLE7=Artie White - Learning tree
TTITLE8=John Lee Hooker - Dimples
TTITLE9=Ake Turner - All the blues, all the time
TTITLE10=Reklama
EXTD=
EXTT0=
EXTT1=
EXTT2=
EXTT3=
EXTT4=
EXTT5=
EXTT6=
EXTT7=
EXTT8=
EXTT9=
EXTT10=
PLAYORDER=
